<?xml version="1.0" standalone="no"?>
<!DOCTYPE svg PUBLIC "-//W3C//DTD SVG 20010904//EN"
 "http://www.w3.org/TR/2001/REC-SVG-20010904/DTD/svg10.dtd">
<svg version="1.0" xmlns="http://www.w3.org/2000/svg"
 width="1346.000000pt" height="1346.000000pt" viewBox="0 0 1346.000000 1346.000000"
 preserveAspectRatio="xMidYMid meet">
<metadata>
Created by potrace 1.16, written by Peter Selinger 2001-2019
</metadata>
<g transform="translate(0.000000,1346.000000) scale(0.100000,-0.100000)"
fill="#000000" stroke="none">
<path d="M7717 12367 c-7 -19 1 -27 27 -27 40 0 237 -79 294 -118 30 -20 130
-48 139 -38 11 11 -46 62 -110 100 -91 54 -177 81 -293 93 -39 4 -53 1 -57
-10z"/>
<path d="M4560 12069 c-19 -16 -37 -29 -41 -29 -9 0 -147 -91 -211 -139 -33
-24 -48 -42 -48 -58 0 -13 2 -23 4 -23 3 0 26 15 51 33 26 17 54 37 63 42 10
6 49 31 89 58 40 26 76 47 81 47 4 0 23 16 42 35 30 31 32 37 20 49 -13 13
-20 11 -50 -15z"/>
<path d="M8250 12045 c0 -3 19 -18 43 -33 60 -38 112 -79 176 -138 31 -28 83
-69 116 -92 33 -22 74 -53 90 -69 45 -41 102 -85 168 -126 32 -21 66 -52 77
-70 38 -64 149 -233 172 -262 13 -16 35 -55 48 -85 13 -30 41 -81 62 -113 21
-32 38 -61 38 -63 0 -3 14 -25 30 -49 17 -24 30 -46 30 -49 0 -6 28 -48 78
-115 18 -25 44 -71 58 -102 30 -66 56 -87 44 -36 -4 18 -17 51 -28 74 -12 23
-31 66 -43 95 -35 90 -91 200 -139 273 -25 39 -52 86 -60 105 -7 19 -30 59
-49 88 -20 29 -47 70 -61 91 -14 21 -40 58 -58 82 -18 24 -40 58 -48 75 -22
46 -292 296 -354 328 -19 10 -62 42 -95 72 -33 29 -75 61 -93 69 -47 23 -202
61 -202 50z"/>
<path d="M7918 12029 c-10 -5 -18 -19 -18 -29 0 -16 7 -20 30 -20 17 0 38 -4
48 -9 9 -5 37 -15 62 -22 25 -7 69 -28 98 -46 95 -60 263 -139 346 -164 28 -8
28 -8 10 13 -28 31 -132 102 -194 133 -30 15 -86 47 -125 70 -38 23 -81 44
-95 47 -14 4 -51 13 -83 22 -67 19 -58 18 -79 5z"/>
<path d="M5505 12023 c-16 -3 -34 -9 -39 -14 -6 -5 -18 -9 -27 -9 -10 0 -64
-23 -120 -52 -80 -40 -118 -67 -171 -119 -37 -38 -68 -73 -68 -79 0 -6 -35
-63 -78 -128 -44 -64 -92 -144 -109 -177 -41 -81 -146 -282 -171 -326 -25 -44
-36 -66 -52 -100 -6 -14 -23 -39 -37 -55 -14 -16 -37 -45 -52 -64 -40 -54
-132 -139 -171 -159 -71 -37 -132 -46 -209 -31 -39 7 -71 18 -71 24 0 6 20 46
45 90 25 43 45 81 45 83 0 3 11 14 25 25 28 22 33 56 10 64 -34 14 -83 -25
-131 -104 -63 -104 -120 -211 -126 -242 -3 -14 -20 -63 -38 -110 -18 -47 -35
-97 -37 -113 -3 -15 -9 -30 -14 -33 -5 -3 -9 -18 -9 -33 0 -15 -3 -31 -7 -35
-10 -9 -32 -95 -33 -123 0 -27 12 -29 50 -6 30 17 50 51 50 83 0 15 -7 20 -24
20 -14 0 -27 4 -30 9 -7 10 16 21 45 21 19 0 49 46 49 75 0 8 4 23 9 33 17 34
30 68 47 120 9 30 22 52 30 52 8 0 14 -5 14 -10 0 -19 100 -160 125 -176 16
-10 34 -14 51 -10 l26 7 -41 35 c-40 35 -91 102 -104 135 -5 14 -1 15 31 7
100 -27 156 -20 267 32 100 48 259 227 331 374 18 38 38 74 43 80 8 9 107 199
174 331 11 22 50 85 86 140 37 55 73 113 81 129 37 73 181 175 310 220 69 24
166 21 226 -8 119 -57 170 -74 157 -53 -4 7 -34 40 -67 74 -95 100 -162 124
-291 106z"/>
<path d="M7027 12004 c-50 -15 -158 -89 -227 -156 -117 -115 -177 -203 -215
-314 -21 -61 -58 -281 -51 -300 8 -20 44 -17 56 5 5 11 10 61 10 110 0 50 4
99 9 109 5 9 15 32 22 50 34 93 178 269 280 344 109 79 131 88 219 88 73 0 82
-2 113 -29 18 -16 39 -42 47 -58 8 -15 36 -57 61 -93 27 -37 60 -101 77 -150
52 -149 75 -205 118 -294 8 -16 14 -35 14 -42 0 -16 39 -107 49 -114 4 -3 20
-27 35 -54 65 -112 189 -273 249 -322 27 -21 54 -43 61 -49 68 -57 121 -88
209 -124 30 -12 119 -15 130 -5 8 8 -93 83 -165 122 -86 47 -182 128 -257 217
-68 81 -131 168 -131 180 0 4 -8 19 -18 33 -33 47 -82 143 -82 159 0 8 -13 41
-28 72 -24 47 -75 173 -125 305 -6 16 -33 61 -61 100 -28 39 -64 91 -81 115
-16 24 -45 55 -64 69 -31 24 -43 27 -135 29 -56 1 -109 -1 -119 -3z"/>
<path d="M5920 11889 c0 -11 34 -62 100 -152 21 -29 51 -55 75 -66 22 -10 46
-25 54 -34 15 -19 45 -23 39 -6 -2 6 -32 50 -68 98 -77 105 -200 203 -200 160z"/>
<path d="M8040 11681 c0 -22 183 -201 272 -266 33 -25 77 -53 97 -62 20 -10
68 -38 106 -63 88 -56 117 -72 123 -65 9 9 -40 55 -98 93 -30 20 -82 60 -115
90 -285 256 -385 327 -385 273z"/>
<path d="M5638 11624 c-37 -20 -89 -82 -129 -155 -19 -34 -39 -68 -44 -77 -41
-67 -71 -113 -97 -151 -17 -24 -76 -134 -130 -244 -55 -110 -112 -219 -127
-241 -15 -23 -38 -63 -51 -89 -13 -27 -51 -74 -85 -105 -55 -50 -91 -73 -185
-116 -14 -6 -34 -19 -44 -28 -11 -10 -28 -18 -39 -18 -10 0 -27 -5 -37 -10
-11 -6 -61 -14 -112 -19 -94 -9 -168 -34 -136 -46 22 -9 225 0 274 12 37 9 65
21 119 50 11 6 47 22 79 35 75 29 184 129 221 201 15 29 40 69 56 89 16 20 29
43 29 50 0 8 4 18 9 23 5 6 54 100 110 210 55 110 112 214 126 230 l25 30 40
-45 c107 -119 97 -111 153 -108 48 3 52 5 55 30 3 24 -1 28 -37 38 -29 8 -61
31 -110 79 l-70 69 30 46 c16 26 29 49 29 52 0 15 84 125 109 143 36 26 87 37
103 23 7 -5 41 -13 76 -17 42 -5 65 -12 69 -22 3 -8 33 -28 67 -43 34 -15 86
-51 117 -79 l57 -51 -10 -40 c-13 -49 1 -90 31 -90 13 0 21 9 26 30 9 40 23
38 78 -10 25 -22 48 -40 51 -40 13 0 5 41 -14 72 -25 42 -25 51 0 43 14 -4 20
-2 20 8 0 23 -131 178 -167 198 -32 18 -33 18 -33 -1 0 -10 5 -22 10 -25 12
-7 13 -25 3 -25 -5 0 -30 20 -58 45 -27 24 -53 45 -56 45 -4 0 -9 9 -12 19 -4
17 -17 20 -88 25 -203 15 -274 15 -301 0z"/>
<path d="M6810 11626 c-23 -13 -90 -88 -90 -101 0 -3 35 -5 78 -4 92 2 148
-21 186 -77 43 -64 160 -184 178 -184 19 0 25 25 8 35 -5 3 -10 16 -10 29 0
13 -6 36 -14 52 -8 16 -21 45 -30 64 -31 66 -86 131 -124 146 -20 9 -51 22
-69 30 -49 22 -86 25 -113 10z"/>
<path d="M5776 11458 c-4 -24 -9 -79 -12 -123 -6 -76 -5 -81 20 -104 18 -17
31 -22 50 -17 26 6 36 38 17 50 -5 3 -14 52 -21 108 -12 97 -22 128 -40 128
-4 0 -11 -19 -14 -42z"/>
<path d="M3712 11307 c-18 -18 -32 -37 -32 -42 0 -5 -19 -34 -43 -64 -24 -31
-65 -100 -91 -155 -26 -54 -65 -125 -87 -159 -42 -65 -48 -87 -24 -87 30 0 72
29 97 67 24 37 108 205 108 217 0 4 17 34 38 69 20 34 44 75 52 91 8 16 27 38
42 49 21 16 25 24 17 34 -18 21 -43 15 -77 -20z"/>
<path d="M3926 11158 c-46 -23 -37 -16 -139 -130 -71 -81 -92 -118 -67 -118
25 0 73 34 112 78 23 26 70 75 105 108 35 34 63 66 63 73 0 17 -30 13 -74 -11z"/>
<path d="M8088 11035 c-12 -12 17 -92 46 -130 41 -53 107 -116 146 -139 l32
-18 -18 33 c-9 18 -48 71 -85 118 -48 60 -69 94 -69 113 0 23 -5 28 -23 28
-13 0 -26 -2 -29 -5z"/>
<path d="M8500 10782 c0 -10 19 -34 43 -53 23 -20 55 -56 72 -80 40 -61 75
-98 107 -115 15 -8 29 -14 33 -14 27 0 -66 142 -148 228 -38 38 -59 52 -79 52
-20 0 -28 -5 -28 -18z"/>
<path d="M3603 10758 c-53 -58 -178 -268 -227 -380 -73 -169 -96 -215 -110
-228 -18 -14 -10 32 15 87 10 24 19 51 19 60 0 19 30 106 74 212 14 36 26 68
26 72 0 4 16 41 35 82 19 41 35 80 35 86 0 6 -15 11 -34 11 -32 0 -34 -3 -75
-89 -22 -49 -41 -94 -41 -99 0 -6 -9 -27 -20 -49 -24 -47 -109 -293 -119 -348
-34 -174 -44 -224 -52 -251 -5 -17 -9 -50 -9 -73 0 -26 -7 -53 -19 -69 -35
-49 -81 -149 -81 -175 0 -14 -4 -29 -10 -32 -5 -3 -10 -17 -10 -31 0 -17 5
-24 20 -24 11 0 20 7 20 16 0 31 63 145 91 165 16 11 29 28 29 38 0 9 4 21 8
26 5 6 14 35 22 65 7 30 17 62 21 70 4 8 39 78 78 156 38 77 78 156 88 175 11
18 30 61 43 94 46 119 104 220 212 366 26 37 48 72 48 78 0 20 -56 12 -77 -11z"/>
<path d="M9180 10630 c0 -5 5 -10 10 -10 14 0 12 -38 -2 -42 -14 -5 11 -45 82
-128 47 -57 90 -123 90 -141 0 -6 22 -44 50 -84 44 -66 240 -439 283 -540 28
-65 59 -116 73 -122 8 -3 14 -13 14 -22 1 -27 36 -65 54 -58 11 4 19 1 22 -11
3 -9 10 -26 15 -37 8 -19 12 -65 25 -285 l5 -95 -24 23 c-24 22 -24 22 -42 2
-14 -16 -16 -25 -7 -47 12 -33 38 -140 50 -203 6 -35 12 -45 32 -50 18 -4 28
-18 40 -53 9 -26 19 -50 23 -54 4 -3 7 -19 7 -35 0 -15 5 -28 11 -28 15 0 -1
109 -30 200 -14 46 -14 50 5 50 15 0 16 10 9 83 -4 45 -11 132 -16 192 -18
226 -26 301 -36 350 -6 28 -18 95 -28 150 -9 55 -21 110 -26 123 -5 13 -9 36
-9 52 0 16 -4 39 -9 52 -5 13 -19 61 -31 108 -50 196 -70 260 -109 333 -15 29
-31 68 -34 87 -13 63 -78 182 -93 168 -4 -5 6 -62 26 -156 6 -23 10 -49 10
-57 0 -9 16 -50 36 -92 39 -81 72 -181 84 -253 4 -25 14 -66 24 -91 17 -49 41
-156 56 -249 5 -30 13 -70 19 -87 6 -20 6 -35 0 -38 -5 -4 -12 2 -15 12 -3 10
-18 45 -34 78 -15 33 -36 78 -45 100 -46 109 -243 485 -271 518 -14 17 -41 62
-61 101 -32 63 -74 126 -111 164 -7 8 -25 30 -40 50 -58 78 -82 99 -82 72z"/>
<path d="M3805 10530 c-46 -22 -135 -104 -151 -140 -6 -14 -22 -46 -34 -72
-14 -29 -20 -54 -15 -65 6 -16 9 -15 28 12 46 64 127 132 235 195 24 15 32 27
32 49 0 45 -31 52 -95 21z"/>
<path d="M8800 10367 c0 -7 6 -21 14 -32 7 -11 29 -49 48 -85 19 -36 45 -83
58 -105 13 -22 32 -58 42 -80 10 -22 23 -48 28 -57 15 -26 12 -48 -5 -48 -28
0 -65 -31 -65 -55 0 -26 21 -38 54 -29 40 10 146 -61 146 -98 0 -11 7 -18 18
-18 10 0 28 -7 40 -16 29 -20 157 -210 198 -294 17 -36 42 -74 54 -85 12 -11
26 -30 31 -42 12 -32 39 -30 39 3 0 14 4 23 9 20 9 -6 15 -29 31 -121 4 -27
13 -66 18 -85 18 -59 53 -193 63 -235 5 -22 14 -58 20 -80 5 -22 14 -56 18
-75 44 -191 63 -270 71 -296 6 -17 10 -39 10 -50 0 -41 74 -194 94 -194 12 0
2 60 -26 165 -14 50 -30 115 -37 145 -21 93 -51 223 -63 265 -12 44 -21 78
-38 145 -7 25 -16 56 -20 70 -4 14 -13 45 -20 70 -12 45 -17 60 -39 113 -6 15
-11 40 -11 54 0 30 -20 104 -32 118 -4 5 -8 18 -8 30 0 30 -22 73 -40 78 -8 2
-26 26 -40 53 -45 92 -169 269 -211 304 -98 80 -135 115 -153 144 -32 51 -76
137 -76 148 0 5 -13 28 -29 51 -15 23 -43 73 -62 111 -22 44 -45 76 -64 88
-35 21 -65 24 -65 5z"/>
<path d="M8356 10245 c-3 -8 1 -36 9 -62 7 -27 23 -80 34 -118 12 -39 21 -82
21 -95 0 -14 14 -68 30 -120 17 -52 30 -105 30 -117 0 -12 4 -32 9 -45 5 -13
19 -57 31 -98 12 -41 26 -86 31 -100 4 -14 17 -59 29 -100 33 -117 61 -201 80
-245 10 -22 28 -69 40 -105 12 -36 41 -106 65 -155 24 -50 55 -122 70 -160 63
-164 174 -359 267 -464 21 -24 38 -47 38 -50 0 -4 -13 -15 -30 -24 -16 -10
-60 -50 -97 -88 -38 -39 -99 -91 -136 -115 l-69 -45 -146 5 c-431 16 -414 15
-445 44 -16 15 -39 38 -51 51 -105 122 -205 175 -345 186 -41 4 -91 13 -112
22 -86 34 -356 -3 -433 -60 -17 -12 -53 -34 -80 -47 -60 -30 -236 -199 -236
-227 0 -12 7 -37 15 -57 15 -35 12 -86 -5 -86 -4 0 -27 7 -50 15 -23 8 -55 15
-70 15 -15 0 -33 6 -39 14 -6 7 -13 58 -16 113 -5 121 -9 133 -45 133 l-27 0
-6 -93 c-9 -136 -5 -130 -101 -123 -73 5 -208 -3 -337 -20 l-46 -6 -17 50 c-9
28 -16 79 -16 114 0 71 -16 105 -44 95 -15 -6 -17 -19 -13 -104 3 -54 8 -114
12 -135 6 -32 4 -38 -19 -53 -31 -20 -56 -14 -56 15 0 11 -4 28 -9 38 -5 9
-16 34 -24 54 -22 50 -86 82 -194 95 -76 10 -84 13 -114 47 -17 20 -51 46 -75
56 -23 11 -45 24 -49 30 -7 11 -58 28 -130 42 -65 13 -273 21 -294 12 -15 -7
-148 -35 -256 -53 -57 -10 -148 -36 -185 -54 -14 -7 -44 -31 -68 -55 -24 -23
-56 -45 -73 -49 -33 -6 -40 -38 -10 -46 36 -9 72 6 121 50 48 43 126 75 218
90 35 6 38 2 21 -29 -16 -30 -38 -129 -32 -144 10 -26 -56 -44 -162 -44 -63 0
-121 -6 -154 -16 -29 -8 -87 -20 -129 -25 -42 -6 -102 -14 -132 -19 -30 -5
-82 -9 -115 -9 -41 -1 -77 -9 -113 -26 l-53 -24 -82 42 c-92 47 -144 70 -232
102 -33 13 -82 33 -110 46 l-50 24 -7 119 c-7 112 -6 122 13 155 12 20 35 61
52 91 17 30 38 67 49 82 10 14 18 30 18 35 0 5 13 35 30 68 36 74 39 110 7
119 -31 8 -37 7 -37 -5 0 -6 -8 -23 -19 -37 -10 -15 -26 -48 -35 -74 -8 -26
-40 -97 -70 -158 -30 -60 -62 -129 -70 -152 -22 -67 -66 -181 -78 -202 -5 -10
-18 -34 -29 -53 -22 -39 -24 -69 -6 -87 7 -8 42 -28 78 -45 l64 -31 33 -83
c17 -45 32 -95 32 -110 0 -20 5 -27 20 -27 18 0 20 7 20 56 0 30 -5 64 -10 75
-18 33 -2 38 53 18 115 -43 98 -35 287 -138 52 -28 101 -57 108 -65 14 -14 45
-141 62 -251 17 -117 56 -272 71 -281 5 -3 9 -14 9 -24 0 -71 98 -190 173
-211 53 -15 457 -12 513 3 21 6 102 14 179 19 278 17 361 25 390 38 17 7 75
17 130 22 55 4 118 12 140 18 22 5 67 16 100 25 33 8 74 16 90 16 45 1 101 54
125 119 25 70 46 281 33 347 -11 57 -11 244 1 262 15 25 44 12 59 -27 18 -43
39 -56 68 -41 20 11 26 54 9 65 -5 3 -10 16 -10 28 0 21 9 24 94 40 151 28
346 9 346 -34 0 -6 10 -19 22 -29 21 -16 22 -21 11 -52 -26 -71 -33 -175 -33
-475 0 -329 8 -403 41 -403 9 0 19 7 23 15 10 27 77 19 128 -15 44 -29 55 -46
99 -147 18 -42 42 -42 57 0 29 79 3 152 -76 213 -53 42 -81 53 -137 56 l-50 3
1 350 c1 193 5 377 10 410 l9 60 48 -3 c46 -3 123 -37 157 -69 12 -11 16 -62
21 -286 6 -297 9 -314 63 -340 17 -8 62 -30 100 -49 l70 -33 395 -8 c218 -4
428 -8 466 -8 39 -1 84 2 102 6 20 4 60 0 116 -14 70 -17 117 -21 261 -21 169
0 214 6 239 33 27 28 58 129 77 257 10 63 24 134 41 205 12 51 26 184 35 338
4 67 1 100 -11 138 -10 28 -15 52 -14 54 2 1 30 22 61 46 31 24 90 74 130 111
70 63 124 96 136 83 3 -3 0 -20 -6 -38 -18 -49 -16 -136 3 -144 21 -8 28 1 27
36 0 17 8 54 19 83 10 29 19 62 19 73 0 12 5 26 12 33 14 14 61 16 86 3 9 -5
30 -15 46 -22 41 -19 107 -88 134 -139 46 -87 39 -154 -29 -297 -16 -34 -29
-65 -29 -68 0 -3 -18 -32 -39 -64 -69 -101 -121 -222 -121 -281 0 -28 -5 -60
-10 -71 -6 -10 -14 -68 -19 -128 -7 -105 -9 -112 -51 -181 -56 -93 -141 -150
-170 -115 -7 8 -24 15 -39 15 -34 0 -48 -31 -62 -140 -5 -46 -13 -88 -16 -94
-4 -6 -10 -28 -14 -51 -15 -81 -74 -290 -89 -317 -6 -10 -10 -26 -10 -36 0
-10 -4 -22 -10 -28 -14 -14 -70 -154 -70 -175 0 -10 -8 -33 -18 -51 -10 -18
-29 -60 -42 -93 -13 -33 -27 -64 -32 -70 -4 -5 -8 -17 -8 -27 0 -10 -4 -26 -9
-36 -26 -49 -91 -194 -91 -203 0 -15 -61 -141 -77 -161 -12 -13 -20 -15 -46
-6 -18 6 -41 19 -53 29 -11 11 -26 19 -32 19 -18 0 -14 -31 7 -49 21 -19 61
-93 61 -115 0 -29 -127 -210 -162 -230 -18 -11 -67 -52 -108 -91 -93 -89 -160
-135 -197 -135 -16 0 -50 -13 -76 -30 -26 -16 -52 -30 -58 -30 -5 0 -39 -13
-76 -30 -36 -16 -73 -30 -82 -30 -9 0 -43 -14 -75 -30 -32 -17 -75 -30 -95
-30 -20 -1 -47 -7 -61 -15 -46 -26 -49 -15 -11 43 47 72 101 184 101 211 0 12
-6 21 -14 21 -19 0 -99 -73 -116 -106 -8 -16 -31 -53 -50 -82 -53 -82 -78
-126 -79 -139 -1 -15 -80 -120 -107 -144 -26 -22 -73 -45 -156 -78 -70 -26
-178 -46 -293 -54 -204 -13 -707 -19 -730 -8 -11 5 -36 15 -55 22 -134 49
-239 124 -280 202 -15 28 -33 48 -47 52 -47 11 -143 123 -172 200 -8 21 -45
55 -61 55 -28 0 -40 -23 -40 -77 0 -53 0 -53 -27 -47 -56 14 -151 53 -256 108
-60 31 -121 56 -137 56 -37 0 -256 109 -339 168 -78 56 -181 151 -181 166 0 6
-17 34 -38 61 -121 163 -166 244 -203 365 -12 41 -30 91 -39 110 -26 54 -36
77 -70 180 -18 52 -39 107 -46 121 -7 15 -29 76 -49 135 -20 60 -39 118 -44
129 -4 11 -18 54 -31 95 -12 41 -31 97 -41 124 -10 27 -19 54 -19 60 0 7 -6
24 -12 39 -16 34 -61 35 -66 1 -4 -30 65 -234 88 -259 10 -12 21 -44 25 -80 4
-33 17 -91 30 -130 35 -103 65 -186 80 -220 7 -16 23 -64 35 -105 13 -41 31
-88 39 -105 24 -47 60 -157 61 -183 0 -13 5 -32 10 -43 9 -16 7 -21 -15 -29
-24 -9 -25 -10 -11 -47 8 -21 20 -59 26 -86 7 -26 17 -50 21 -53 5 -3 9 -17 9
-31 0 -14 29 -84 64 -157 36 -72 72 -153 81 -181 9 -27 43 -105 76 -171 32
-67 59 -132 59 -145 0 -21 12 -65 30 -114 18 -46 29 -83 40 -137 6 -32 16 -60
21 -63 5 -4 9 -17 9 -31 0 -14 9 -44 20 -66 11 -23 20 -49 20 -59 0 -9 8 -34
17 -55 9 -22 20 -66 24 -99 21 -166 47 -262 77 -287 40 -36 110 -28 85 9 -25
36 -43 79 -57 138 -8 33 -22 85 -30 115 -9 30 -16 67 -16 81 0 14 -9 44 -20
67 -11 22 -20 50 -20 61 0 11 -4 22 -9 25 -4 3 -14 27 -21 53 -7 27 -19 63
-27 82 -9 19 -18 51 -20 73 -3 21 -10 41 -14 44 -5 3 -9 16 -9 29 0 13 -4 27
-10 30 -5 3 -10 17 -10 30 0 13 -4 26 -9 29 -5 4 -12 25 -16 49 -7 41 -18 66
-109 259 -25 53 -46 103 -46 110 0 8 -27 68 -60 136 -33 67 -60 130 -60 140 0
10 -9 37 -21 61 -11 23 -19 52 -17 64 2 16 14 4 52 -54 27 -41 60 -87 73 -102
12 -15 30 -44 39 -63 17 -35 149 -164 169 -164 5 0 24 -13 40 -28 39 -36 298
-167 349 -176 36 -7 162 -63 226 -100 29 -17 242 -96 258 -96 21 0 80 -68 107
-124 30 -62 90 -116 127 -116 14 0 32 -8 42 -19 15 -17 66 -44 129 -70 15 -6
53 -11 83 -11 38 0 68 -7 97 -22 40 -22 54 -23 321 -26 233 -3 287 -1 327 12
33 11 86 16 171 16 68 0 128 4 134 8 5 5 36 15 69 22 105 23 216 77 290 139
30 25 68 56 84 69 16 12 35 36 43 52 7 17 25 34 43 41 16 6 38 15 47 20 10 5
38 9 64 9 28 0 56 7 72 18 15 10 52 24 82 32 30 7 69 21 87 31 17 10 51 23 75
29 23 7 55 20 69 31 14 10 47 23 74 29 57 13 115 52 214 143 41 38 91 79 111
92 42 27 54 41 125 155 38 61 55 79 70 77 16 -2 19 -8 17 -37 -1 -19 -7 -39
-12 -44 -6 -6 -10 -17 -10 -26 0 -8 -13 -42 -30 -75 -16 -33 -30 -65 -30 -71
0 -6 -13 -42 -28 -80 -16 -38 -31 -91 -35 -119 -6 -50 -25 -122 -54 -205 -9
-25 -19 -67 -23 -95 -3 -27 -14 -67 -23 -89 -9 -21 -17 -48 -17 -60 0 -12 -9
-46 -20 -76 -11 -30 -20 -63 -20 -73 0 -10 -8 -34 -19 -55 -10 -20 -21 -60
-24 -87 -3 -28 -13 -71 -21 -95 -17 -49 -21 -145 -7 -154 17 -11 19 -80 3
-111 -28 -55 -186 -289 -233 -345 -25 -30 -59 -74 -75 -97 -66 -94 -151 -202
-210 -265 -34 -37 -70 -82 -78 -100 -9 -18 -49 -66 -89 -106 -79 -78 -102
-106 -177 -224 -33 -50 -50 -87 -50 -108 0 -17 -9 -40 -20 -52 -21 -22 -23
-36 -20 -125 1 -34 -5 -64 -19 -92 -17 -32 -21 -59 -21 -136 0 -76 -4 -104
-20 -135 -16 -32 -20 -59 -20 -152 0 -85 -5 -127 -20 -172 -11 -33 -20 -82
-20 -110 0 -28 -7 -73 -16 -101 -9 -27 -20 -86 -24 -130 -4 -44 -12 -97 -18
-117 -5 -21 -7 -67 -4 -103 4 -54 8 -65 21 -63 12 2 17 18 21 58 3 30 15 75
27 100 12 27 23 76 27 124 3 43 10 84 15 90 5 6 14 57 19 113 6 56 15 110 21
122 6 11 11 75 11 146 0 106 3 133 20 167 16 33 20 62 20 142 0 83 4 107 20
134 16 26 20 50 20 117 0 62 3 85 13 85 17 0 32 -26 68 -118 17 -42 36 -86 43
-97 7 -11 21 -45 31 -75 18 -57 54 -130 65 -130 6 0 26 -38 59 -110 11 -25 32
-64 46 -88 14 -23 25 -47 25 -53 0 -6 14 -28 30 -49 17 -21 30 -40 30 -43 0
-3 14 -26 30 -50 17 -25 30 -52 30 -60 0 -8 7 -20 15 -27 8 -7 15 -18 15 -26
0 -7 12 -14 27 -16 14 -2 35 -15 45 -29 19 -25 19 -26 -2 -62 -17 -29 -19 -40
-10 -56 6 -12 14 -21 18 -21 5 0 30 25 56 55 51 60 83 124 126 255 48 146 92
242 196 430 29 52 55 105 59 118 4 13 29 60 57 105 28 45 64 109 81 142 17 33
38 71 47 85 24 36 220 421 220 433 0 36 153 300 198 340 10 10 32 48 48 85 30
71 154 320 205 412 17 30 49 91 72 135 22 44 49 86 59 93 10 7 18 22 18 33 0
14 -7 19 -30 19 -26 0 -33 -8 -66 -67 -21 -38 -48 -81 -62 -98 -44 -56 -222
-381 -222 -409 -1 -37 -131 -243 -161 -254 -5 -2 -6 -8 -3 -14 4 -6 0 -14 -7
-19 -8 -4 -14 -12 -15 -16 -1 -16 -34 -84 -68 -143 -20 -34 -36 -69 -36 -78 0
-9 -7 -30 -15 -46 -8 -15 -15 -33 -15 -38 0 -5 -17 -35 -39 -66 -21 -32 -64
-104 -95 -162 -31 -58 -67 -123 -79 -145 -13 -22 -45 -80 -72 -130 -26 -49
-53 -97 -60 -105 -6 -8 -26 -44 -44 -80 -17 -36 -58 -114 -89 -175 -32 -60
-69 -137 -82 -170 -13 -33 -30 -71 -37 -85 -7 -14 -13 -30 -13 -37 0 -7 -8
-16 -17 -22 -14 -8 -15 -12 -4 -25 12 -14 11 -16 -5 -16 -18 0 -44 -40 -44
-67 0 -7 -4 -13 -10 -13 -5 0 -10 -7 -10 -16 0 -8 -7 -22 -15 -30 -12 -13 -16
-11 -30 15 -22 43 -19 90 11 149 26 53 27 90 2 119 -17 21 -25 15 -31 -23 -3
-20 -13 -44 -21 -53 -8 -9 -16 -27 -18 -40 -3 -21 -7 -18 -40 31 -21 29 -43
69 -50 88 -6 19 -24 54 -38 77 -15 23 -35 63 -45 90 -10 26 -33 66 -51 90 -18
23 -35 57 -39 74 -4 18 -21 57 -37 88 -16 31 -52 99 -79 151 -27 52 -59 107
-71 122 l-22 28 32 42 c18 24 41 59 51 78 11 19 59 73 106 120 48 47 103 110
123 140 20 30 59 80 87 110 28 30 98 118 155 194 58 76 113 144 123 150 10 6
57 70 104 141 47 72 89 132 93 135 4 3 33 55 64 117 31 62 68 128 81 147 38
56 45 73 39 90 -10 25 -38 19 -56 -12 -20 -34 -56 -67 -64 -59 -3 3 2 32 11
64 10 32 21 83 25 113 10 66 37 172 56 218 14 33 15 33 62 26 26 -4 63 -14 82
-24 74 -35 141 -43 329 -37 160 4 187 3 243 -14 47 -15 93 -20 192 -20 165 -1
156 -3 156 21 0 16 -7 20 -30 20 -17 0 -54 12 -82 27 -34 18 -72 28 -112 31
-34 2 -81 11 -106 20 -35 13 -98 18 -295 23 -138 3 -285 12 -328 19 -71 13
-78 16 -72 35 3 11 8 38 11 60 3 22 12 60 20 85 27 89 52 186 64 250 6 36 15
70 20 75 4 6 18 39 30 75 13 36 36 93 51 128 16 34 29 68 29 75 0 6 9 27 20
45 15 25 27 32 50 32 68 0 189 95 241 189 8 16 22 40 30 53 8 12 21 43 29 68
8 25 26 68 40 95 14 28 32 70 39 95 7 25 17 56 21 70 5 14 13 63 20 110 6 47
13 99 17 115 3 17 9 68 13 115 10 129 40 290 60 335 23 49 30 96 36 246 l6
117 38 43 c22 24 57 78 79 121 38 71 41 82 41 156 0 45 4 91 9 104 5 14 14 65
20 115 9 72 19 106 50 167 22 41 48 88 59 103 25 36 62 113 62 130 0 7 8 27
18 45 46 84 62 214 33 274 -41 87 -58 113 -100 153 -51 48 -155 101 -200 101
-25 0 -29 4 -33 35 -3 23 1 36 10 40 15 6 14 28 -7 125 -6 25 -10 79 -11 122
l0 76 -57 70 c-79 96 -84 95 -53 -13 24 -83 33 -153 34 -250 l1 -100 -40 -3
c-38 -2 -42 0 -86 55 -107 136 -174 249 -228 387 -17 41 -55 127 -86 191 -30
65 -55 121 -55 126 0 5 -5 19 -12 32 -23 46 -28 57 -28 70 0 7 -8 31 -19 53
-19 39 -41 104 -81 244 -13 41 -26 86 -30 100 -4 14 -14 45 -21 70 -7 25 -16
50 -20 55 -3 6 -12 35 -19 65 -7 30 -25 96 -41 146 -16 49 -29 101 -29 114 0
13 -8 49 -19 79 -10 31 -24 76 -31 101 -23 84 -38 110 -64 110 -13 0 -26 -7
-30 -15z m-727 -2071 c17 -4 31 -12 31 -19 0 -7 9 -15 20 -18 35 -9 23 -45
-35 -104 l-55 -55 -58 5 c-31 3 -85 11 -120 18 -53 10 -63 15 -68 36 -9 33 10
71 40 83 13 5 28 15 33 23 4 8 17 19 28 25 22 12 133 16 184 6z m258 -45 c73
-30 120 -57 150 -88 18 -18 30 -38 27 -42 -8 -13 -58 -11 -158 7 -50 8 -106
12 -128 9 -38 -7 -48 1 -27 22 6 6 12 30 14 54 2 24 4 45 4 47 2 7 94 0 118
-9z m-2565 -49 c9 -19 20 -54 24 -78 11 -70 -3 -78 -156 -101 -30 -4 -77 -14
-104 -21 -45 -12 -50 -12 -63 6 -20 27 -7 101 25 144 45 60 60 70 100 70 20 0
44 5 52 10 8 6 35 9 60 8 40 -3 47 -7 62 -38z m176 8 c63 -15 184 -88 180
-108 -3 -12 -24 -16 -118 -18 l-115 -3 -13 53 c-22 95 -20 98 66 76z m1887
-247 c129 -22 249 -25 344 -6 77 15 98 16 133 5 24 -7 79 -16 123 -20 44 -4
98 -13 120 -20 22 -6 117 -16 210 -21 94 -5 224 -12 291 -17 128 -7 118 -4
202 -73 17 -13 15 -65 -4 -119 -9 -25 -20 -94 -25 -155 -10 -119 -17 -162 -50
-300 -11 -49 -23 -105 -26 -123 l-5 -33 -172 6 c-94 3 -423 8 -730 10 -618 6
-590 3 -600 69 -8 48 -14 566 -7 566 3 0 16 -26 29 -58 24 -63 86 -134 137
-158 16 -7 37 -18 45 -23 21 -15 102 -51 112 -51 5 0 27 -8 51 -19 100 -44
214 -66 205 -39 -2 6 -24 18 -49 26 -24 8 -53 18 -64 23 -34 13 -70 23 -77 21
-16 -4 -95 33 -150 70 -31 21 -61 38 -65 38 -15 0 -82 71 -89 93 -3 12 -22 55
-41 95 -28 57 -39 71 -53 67 -14 -4 -18 3 -24 41 -3 26 -6 64 -6 86 l0 39 88
-4 c48 -3 114 -10 147 -16z m-1490 -40 c54 -32 63 -92 65 -422 1 -265 -1 -289
-19 -332 -20 -45 -22 -47 -63 -47 -24 0 -63 -8 -88 -16 -72 -27 -120 -35 -207
-38 -51 -2 -96 -10 -118 -21 -27 -12 -62 -17 -125 -16 -49 0 -104 -5 -122 -10
-55 -18 -248 -31 -517 -36 -249 -4 -254 -4 -277 17 -12 12 -28 36 -34 53 -18
47 -31 80 -41 99 -5 10 -9 29 -9 42 0 14 -4 27 -9 30 -5 3 -11 23 -14 43 -16
106 -27 161 -37 193 -23 72 -29 143 -13 174 10 19 13 42 9 68 l-6 38 54 0 c30
0 67 5 81 10 15 6 73 14 130 19 57 5 110 13 117 18 7 4 72 11 143 15 183 10
294 23 410 48 55 12 123 25 150 30 28 4 67 13 88 20 21 6 93 12 160 13 75 1
130 7 142 14 31 19 115 16 150 -6z m3297 -1173 c27 -13 28 -15 22 -78 -3 -36
-11 -83 -16 -105 -6 -22 -14 -83 -18 -135 -5 -52 -13 -113 -20 -135 -7 -22
-16 -69 -21 -105 -15 -106 -27 -170 -47 -255 -19 -77 -25 -97 -42 -140 -4 -11
-16 -47 -27 -80 -22 -64 -70 -178 -111 -262 -48 -97 -144 -189 -122 -115 5 15
14 47 21 72 6 25 15 54 19 65 24 59 30 97 30 191 0 94 3 109 29 163 15 32 34
90 40 128 7 37 21 91 31 118 21 58 68 206 80 250 36 129 53 196 60 230 5 22
13 58 18 80 6 22 13 62 17 88 4 32 11 47 18 44 7 -3 24 -11 39 -19z"/>
<path d="M5620 7508 c-19 -23 -47 -59 -62 -80 -15 -20 -51 -54 -80 -76 -29
-22 -69 -56 -88 -76 -19 -21 -64 -57 -100 -80 -78 -52 -237 -136 -256 -136 -8
0 -22 -4 -32 -9 -46 -23 -95 -41 -112 -41 -11 0 -20 -4 -20 -10 0 -16 46 -22
86 -11 22 6 50 11 62 11 13 0 36 8 50 19 15 10 68 40 117 66 50 26 108 61 130
76 22 16 56 39 75 53 72 49 280 291 280 326 0 19 -15 10 -50 -32z"/>
<path d="M3620 10110 c-8 -5 -29 -10 -46 -10 -41 0 -148 -36 -202 -67 -23 -14
-55 -42 -69 -62 -15 -20 -38 -48 -52 -64 -20 -21 -22 -30 -13 -39 10 -10 23
-2 64 40 28 28 54 52 59 52 5 0 38 14 74 30 36 17 69 30 74 30 11 0 129 38
164 53 15 7 26 19 25 27 -4 18 -56 25 -78 10z"/>
<path d="M3862 10068 c-23 -18 -41 -39 -41 -47 -1 -8 -5 -28 -10 -45 -6 -17
-15 -57 -22 -90 -12 -54 -11 -60 7 -73 33 -24 58 -13 66 32 4 22 11 60 16 85
26 123 33 162 29 166 -2 3 -23 -10 -45 -28z"/>
<path d="M8914 9799 c4 -24 11 -57 16 -74 41 -138 55 -181 62 -189 4 -6 8 -20
8 -32 0 -13 5 -26 10 -29 6 -3 10 -18 10 -33 0 -37 114 -261 148 -291 126
-110 127 -112 129 -177 1 -46 7 -71 25 -98 27 -43 35 -45 44 -10 12 47 -3 127
-28 148 -15 13 -19 20 -10 23 36 13 -1 98 -66 151 -110 88 -162 146 -182 202
-11 30 -20 65 -20 77 0 21 -4 32 -35 108 -7 17 -16 41 -20 55 -3 14 -10 34
-14 45 -5 11 -14 40 -21 65 -6 25 -15 56 -18 70 -4 14 -16 26 -26 28 -17 4
-18 0 -12 -39z"/>
<path d="M3598 9772 c-30 -33 -71 -93 -91 -133 -27 -52 -46 -78 -65 -87 -56
-24 -148 -128 -216 -242 -22 -36 -53 -83 -70 -105 -38 -48 -56 -87 -56 -120 0
-33 15 -32 37 3 61 96 199 268 271 337 24 22 53 58 65 78 49 82 104 156 165
218 66 69 77 101 36 107 -15 2 -37 -14 -76 -56z"/>
<path d="M3805 9742 c-40 -8 -41 -11 -70 -172 -4 -19 -11 -73 -15 -120 -5 -47
-13 -106 -18 -132 -9 -50 -7 -54 17 -39 16 11 40 90 41 137 0 16 4 34 8 40 5
5 14 41 21 79 7 39 20 100 28 138 9 37 14 69 12 70 -2 2 -13 1 -24 -1z"/>
<path d="M6830 9719 c-30 -5 -93 -13 -140 -19 -47 -5 -105 -14 -130 -19 -25
-5 -58 -13 -75 -16 -16 -4 -39 -11 -51 -17 -12 -6 -50 -7 -90 -4 -130 12 -423
16 -429 6 -3 -6 -39 -10 -80 -10 -41 0 -77 -4 -80 -10 -4 -6 -57 -10 -125 -10
-128 0 -170 -11 -170 -43 0 -15 4 -17 18 -11 9 5 73 10 142 12 69 2 129 7 135
13 5 5 42 9 81 9 40 0 75 4 79 10 7 11 352 13 359 1 9 -14 129 -22 166 -10
141 44 317 69 542 75 123 4 157 8 162 19 3 8 0 17 -5 21 -18 10 -250 13 -309
3z"/>
<path d="M7050 9499 c-47 -5 -137 -12 -200 -17 -121 -8 -201 -31 -269 -75 -49
-32 -190 -87 -222 -87 -14 0 -40 7 -58 16 -68 34 -154 46 -358 51 -174 4 -210
2 -263 -13 -46 -14 -60 -23 -60 -37 0 -17 5 -18 43 -12 23 4 130 8 237 8 207
1 289 -11 373 -54 47 -23 120 -25 173 -3 22 8 89 39 149 68 61 30 119 57 130
62 23 9 202 21 465 32 212 9 247 17 206 51 -19 16 -233 22 -346 10z"/>
<path d="M3112 9388 c-7 -7 -12 -22 -12 -34 0 -13 -4 -25 -8 -28 -4 -3 -14
-28 -22 -56 -8 -28 -18 -53 -22 -56 -4 -3 -8 -15 -8 -26 0 -12 -9 -47 -20 -79
-12 -31 -27 -90 -36 -131 -24 -116 -32 -148 -54 -228 -12 -41 -26 -97 -30
-125 -5 -27 -14 -68 -20 -90 -6 -22 -15 -61 -20 -86 -5 -25 -15 -75 -23 -110
-9 -35 -18 -84 -22 -109 -4 -25 -11 -70 -16 -100 -15 -92 -23 -230 -13 -230
10 0 17 22 85 275 10 38 40 199 46 245 2 19 8 44 13 55 9 20 15 46 30 125 4
25 13 63 20 85 24 86 31 112 40 155 5 25 19 88 30 140 12 52 24 129 26 170 3
44 15 104 30 145 35 96 38 105 27 105 -5 0 -14 -5 -21 -12z"/>
<path d="M3589 9264 c-7 -9 -45 -40 -85 -70 -39 -30 -87 -73 -106 -96 -35 -43
-78 -122 -78 -143 0 -6 -13 -27 -30 -45 -32 -36 -36 -55 -19 -112 12 -45 26
-48 39 -10 41 112 113 216 232 335 79 80 98 104 98 128 0 22 -5 29 -19 29 -10
0 -25 -7 -32 -16z"/>
<path d="M8912 9168 c-19 -19 -14 -63 11 -89 95 -98 167 -155 167 -134 0 22
-79 156 -97 166 -13 7 -29 24 -36 38 -14 29 -28 36 -45 19z"/>
<path d="M6752 8840 c-14 -24 -16 -104 -2 -130 8 -14 5 -28 -11 -55 -17 -29
-20 -41 -11 -58 6 -12 11 -35 11 -52 0 -46 25 -96 71 -142 40 -39 47 -42 116
-48 71 -7 134 5 196 36 27 14 655 11 681 -3 36 -19 196 -16 239 5 35 17 43 17
133 2 112 -18 233 -20 272 -4 109 45 129 59 164 116 26 41 18 66 -24 81 -48
17 -89 15 -163 -9 -69 -22 -72 -22 -369 -1 -93 7 -129 5 -160 -5 -21 -7 -46
-10 -55 -6 -8 4 -157 10 -330 13 -358 7 -398 13 -555 86 -27 13 -69 26 -93 30
-38 6 -45 11 -63 49 -11 23 -18 56 -17 75 3 38 -12 49 -30 20z"/>
<path d="M6186 8807 c-2 -6 -9 -33 -16 -58 -8 -32 -19 -50 -35 -57 -13 -6 -31
-24 -41 -41 -16 -26 -24 -31 -59 -31 -22 0 -65 -8 -95 -16 -30 -9 -89 -20
-130 -24 -41 -5 -95 -13 -120 -18 -25 -6 -61 -9 -80 -6 -19 3 -73 -2 -120 -12
-47 -9 -157 -20 -245 -24 -88 -4 -189 -15 -225 -24 -37 -9 -109 -16 -170 -16
-58 -1 -127 -7 -153 -14 -64 -16 -228 -20 -292 -6 -27 6 -67 13 -89 15 -21 2
-43 8 -49 14 -31 31 -107 -10 -107 -59 0 -32 66 -97 109 -106 14 -3 55 -14 91
-25 77 -22 315 -28 353 -7 13 7 95 14 197 18 97 4 184 12 195 17 11 6 122 13
250 15 182 4 240 2 279 -9 33 -10 72 -13 125 -9 98 8 142 8 217 0 50 -5 69 -2
107 16 25 12 56 32 69 45 35 35 77 169 72 230 -2 28 -4 82 -3 121 0 56 -4 73
-16 78 -9 3 -17 0 -19 -7z"/>
<path d="M3289 8662 c-19 -22 -43 -50 -54 -63 l-20 -24 -8 53 c-7 42 -12 52
-28 52 -18 0 -19 -9 -19 -137 0 -109 -4 -152 -20 -203 -17 -57 -20 -94 -20
-290 0 -153 -4 -246 -14 -291 -10 -48 -11 -79 -4 -110 5 -24 14 -183 19 -354
13 -433 25 -652 38 -710 13 -61 30 -180 41 -295 9 -93 35 -253 46 -285 4 -11
11 -67 15 -125 10 -132 19 -189 30 -196 14 -8 6 476 -9 556 -6 36 -16 103 -23
150 -6 47 -16 114 -21 150 -5 36 -13 144 -17 240 -4 96 -13 193 -19 215 -14
48 -16 329 -3 321 5 -4 23 -34 39 -69 17 -34 37 -73 45 -87 44 -78 77 -159 77
-192 0 -11 8 -18 19 -18 32 0 45 -25 31 -60 -12 -30 -11 -53 10 -155 6 -27 15
-70 19 -95 10 -57 25 -92 45 -109 9 -7 16 -19 16 -26 0 -14 87 -82 137 -108
33 -17 79 -22 107 -11 21 8 21 54 0 54 -29 0 -131 69 -166 112 -47 59 -51 67
-60 118 -15 92 -26 137 -52 212 -14 42 -26 87 -26 99 0 31 -37 132 -73 199
-16 30 -38 73 -49 95 -10 22 -28 58 -40 80 -79 151 -78 146 -80 288 l-3 132
38 69 c40 73 64 98 85 91 25 -9 42 7 42 42 0 19 5 43 10 53 6 10 6 21 2 24
-15 9 -96 -25 -136 -56 -29 -23 -40 -28 -46 -18 -13 21 -12 317 1 341 6 12 14
62 18 112 l6 90 35 20 c47 26 48 26 70 88 31 84 23 92 -31 31z"/>
<path d="M10003 8208 c5 -31 13 -85 38 -278 6 -47 14 -173 18 -280 4 -107 13
-216 20 -242 9 -34 10 -61 2 -101 -5 -29 -7 -88 -4 -130 5 -66 8 -77 24 -77
17 0 19 8 19 63 0 34 9 96 19 137 13 51 16 82 10 98 -5 13 -9 101 -9 195 0
140 -4 184 -19 237 -11 36 -25 92 -31 125 -28 142 -49 225 -62 240 -4 5 -8 17
-8 27 0 10 -5 18 -11 18 -7 0 -9 -12 -6 -32z"/>
<path d="M9816 8108 c3 -18 9 -51 14 -73 5 -22 14 -67 20 -100 6 -33 15 -76
20 -95 5 -19 12 -51 15 -70 4 -19 11 -53 16 -75 5 -22 14 -74 19 -115 5 -41
16 -111 24 -155 9 -44 15 -112 16 -152 0 -39 4 -74 9 -77 4 -3 11 -31 15 -63
6 -54 10 -80 35 -195 15 -68 31 -150 37 -190 13 -74 25 -38 20 55 -16 267 -25
366 -36 402 -7 22 -16 90 -21 150 -12 157 -24 251 -42 320 -14 54 -59 241 -89
370 -18 79 -84 137 -72 63z"/>
<path d="M9357 7826 c-3 -8 1 -36 9 -63 8 -26 13 -59 11 -73 -9 -48 -49 -145
-84 -201 -45 -75 -93 -212 -93 -271 0 -26 -5 -59 -12 -73 -16 -35 7 -105 35
-105 16 0 19 5 14 30 -4 16 0 51 8 77 8 26 15 67 15 90 0 23 5 55 11 70 26 64
32 79 42 103 6 14 19 36 28 50 9 14 32 54 50 90 28 56 33 75 33 145 1 59 -4
89 -17 113 -18 34 -41 42 -50 18z"/>
<path d="M3361 7723 c-55 -11 -101 -64 -101 -117 0 -25 24 -76 61 -128 11 -14
19 -29 19 -33 0 -4 21 -35 46 -69 52 -69 63 -92 75 -156 40 -218 58 -275 90
-275 18 0 13 134 -8 208 -8 29 -18 75 -22 104 -5 38 -19 69 -56 123 -28 40
-70 106 -94 147 -55 93 -50 113 33 137 42 13 56 21 56 35 0 27 -37 35 -99 24z"/>
<path d="M2675 7108 c-13 -92 -10 -353 4 -428 6 -36 17 -92 23 -125 6 -33 15
-109 19 -170 12 -171 51 -404 83 -495 9 -25 16 -62 16 -82 0 -20 5 -40 10 -43
6 -3 10 -15 10 -25 0 -10 5 -22 12 -26 8 -5 9 0 4 17 -4 13 -16 114 -27 224
-10 110 -24 229 -29 265 -6 36 -15 117 -19 180 -5 63 -13 144 -19 180 -6 36
-16 94 -22 130 -11 62 -24 194 -36 365 -3 44 -9 84 -13 88 -5 4 -12 -20 -16
-55z"/>
<path d="M9496 6698 c-4 -156 -12 -326 -17 -378 -5 -52 -14 -169 -19 -260 -5
-91 -14 -185 -21 -210 -6 -25 -14 -90 -16 -145 -2 -55 -9 -104 -14 -110 -5 -5
-9 -25 -9 -45 -1 -19 -8 -62 -16 -95 -14 -57 -24 -106 -44 -220 -4 -27 -18
-84 -30 -125 -12 -41 -26 -93 -30 -115 -19 -90 -62 -211 -102 -283 -10 -18
-18 -40 -18 -50 0 -21 -19 -76 -43 -121 -41 -82 -8 -81 68 1 51 55 119 176
159 283 16 42 89 332 96 385 5 30 18 100 30 155 44 211 49 262 71 650 10 188
11 256 6 720 -2 236 -2 240 -23 243 -21 3 -21 0 -28 -280z"/>
<path d="M9979 6478 c0 -18 -3 -143 -5 -278 -3 -246 -7 -308 -25 -367 -5 -18
-13 -48 -18 -65 -25 -95 -50 -179 -74 -243 -8 -22 -20 -58 -26 -80 -7 -22 -16
-49 -20 -60 -5 -11 -14 -33 -20 -48 -6 -15 -11 -43 -11 -61 0 -18 -9 -59 -20
-92 -11 -32 -20 -78 -20 -101 0 -35 -4 -43 -18 -43 -13 0 -21 -13 -31 -47 -7
-27 -17 -58 -22 -71 -5 -13 -9 -33 -9 -45 0 -13 -5 -28 -11 -34 -7 -7 -9 -19
-6 -27 7 -18 37 -22 37 -5 0 6 21 38 46 72 63 86 136 261 150 361 3 23 14 64
24 91 10 28 23 70 30 95 7 25 21 64 31 87 11 24 19 53 19 66 0 13 4 27 9 32 5
6 11 28 14 50 6 43 16 85 42 180 13 48 15 92 12 225 -3 91 -10 188 -16 215 -5
28 -13 66 -16 85 -20 126 -44 181 -46 108z"/>
<path d="M6052 6220 c-29 -28 -39 -68 -20 -86 13 -13 18 -11 41 11 35 36 57
27 91 -35 29 -53 53 -73 133 -109 40 -18 61 -22 92 -17 23 3 60 9 84 13 31 4
57 19 100 56 56 49 59 50 91 39 54 -20 185 -15 223 8 35 21 51 68 39 116 -8
30 -26 27 -43 -8 -24 -48 -79 -56 -230 -32 -45 7 -73 -8 -138 -70 -38 -36 -65
-46 -125 -46 -69 0 -125 33 -168 98 -54 80 -123 105 -170 62z"/>
<path d="M7197 6148 c-28 -15 -19 -41 25 -73 23 -16 52 -48 65 -70 46 -79 110
-211 120 -250 6 -22 19 -64 27 -94 9 -29 16 -79 16 -110 0 -31 7 -83 15 -114
8 -32 15 -95 15 -139 0 -123 29 -180 66 -130 16 21 19 253 4 282 -6 10 -15 63
-20 117 -6 53 -15 102 -20 107 -6 6 -10 19 -10 31 0 72 -145 353 -211 411 -36
30 -72 43 -92 32z"/>
<path d="M3730 6085 c-8 -10 -10 -32 -6 -67 4 -29 10 -143 15 -253 4 -110 11
-209 15 -220 4 -11 13 -58 21 -105 8 -47 18 -105 23 -130 10 -51 77 -256 92
-282 6 -10 10 -24 10 -31 0 -19 24 -67 33 -67 5 0 6 14 2 31 -4 17 -11 74 -15
127 -4 54 -13 115 -20 137 -13 46 -21 78 -51 225 -15 74 -23 163 -28 300 -6
139 -13 214 -26 260 -10 36 -19 71 -21 78 -5 16 -29 15 -44 -3z"/>
<path d="M5688 6049 c-20 -11 -119 -137 -166 -212 -41 -65 -102 -191 -102
-212 0 -8 -4 -23 -9 -33 -9 -17 -23 -52 -37 -87 -11 -30 -24 -147 -29 -261 -4
-80 -2 -104 10 -114 23 -19 32 -5 39 64 4 36 15 86 26 112 11 25 20 65 20 89
0 24 5 57 11 72 6 15 16 39 21 53 6 14 14 33 19 42 5 10 9 25 9 34 0 29 100
210 151 273 27 33 49 63 49 68 0 4 19 26 42 50 35 36 39 44 28 58 -14 17 -56
19 -82 4z"/>
<path d="M6235 5600 c-111 -11 -221 -40 -276 -73 -25 -15 -53 -27 -62 -27 -9
0 -21 -9 -26 -19 -6 -10 -30 -30 -54 -44 -86 -51 -175 -164 -207 -263 -7 -21
-16 -48 -21 -59 -4 -11 -10 -36 -12 -55 -2 -19 -7 -43 -12 -52 -5 -12 -2 -20
9 -24 25 -10 62 30 86 95 60 160 114 236 215 304 33 22 63 44 66 49 3 5 11 3
18 -5 6 -8 30 -17 52 -21 22 -4 59 -15 82 -25 23 -10 51 -23 62 -27 11 -5 81
-12 155 -16 74 -4 173 -10 220 -14 81 -5 92 -4 215 36 72 23 151 53 177 66 38
19 56 22 100 17 61 -7 78 -17 78 -47 0 -12 16 -38 34 -58 19 -20 40 -54 45
-76 11 -38 63 -126 83 -138 35 -22 34 100 -1 180 -12 28 -40 69 -61 93 -40 42
-49 63 -30 63 21 0 9 21 -22 40 -19 11 -51 20 -74 20 -22 0 -44 4 -50 8 -5 5
-43 19 -84 31 -41 13 -86 28 -100 34 -30 14 -484 18 -605 7z m568 -85 c30 -13
18 -30 -30 -43 -27 -7 -68 -20 -93 -29 -94 -33 -137 -37 -201 -19 -38 10 -97
16 -170 16 -106 0 -146 7 -259 48 -8 3 5 9 30 13 25 4 59 12 75 18 34 12 618
9 648 -4z"/>
<path d="M2998 5450 c-5 -83 6 -139 44 -225 22 -49 45 -101 51 -115 6 -14 23
-43 37 -65 14 -22 32 -53 39 -70 23 -53 27 -59 39 -63 25 -8 10 87 -23 148 -7
14 -22 48 -33 75 -11 28 -36 84 -55 125 -19 41 -45 102 -58 135 -27 72 -38 88
-41 55z"/>
<path d="M3420 5333 c1 -104 24 -230 58 -314 17 -42 101 -215 187 -385 121
-239 170 -325 216 -381 32 -39 59 -74 59 -78 0 -9 60 -65 69 -65 3 0 13 5 21
10 12 8 11 12 -6 32 -11 13 -28 40 -38 60 -9 21 -33 58 -54 82 -44 53 -92 129
-92 146 0 6 -8 24 -18 38 -26 39 -282 555 -282 570 0 7 -8 31 -18 55 -21 47
-34 89 -51 162 -35 145 -51 167 -51 68z"/>
<path d="M6296 5212 c-3 -5 -23 -14 -44 -21 -63 -21 -96 -53 -89 -83 9 -36 38
-40 105 -15 38 14 94 23 172 28 112 6 240 33 240 50 0 9 -64 29 -92 29 -9 0
-20 5 -23 10 -7 12 -262 14 -269 2z"/>
<path d="M4080 4571 c0 -33 5 -83 11 -113 15 -71 159 -358 226 -448 51 -71 57
-90 27 -90 -8 0 -41 -13 -72 -29 -31 -17 -99 -44 -151 -60 -51 -17 -128 -51
-170 -75 -108 -61 -128 -71 -203 -106 -38 -16 -68 -34 -68 -40 0 -15 -21 -12
-42 7 -16 14 -23 15 -38 5 -11 -7 -46 -12 -78 -12 -33 0 -85 -9 -117 -20 -43
-15 -84 -20 -157 -20 -79 0 -109 -4 -149 -21 l-50 -22 -47 22 c-42 20 -53 21
-95 11 -36 -8 -64 -7 -105 1 -52 11 -62 10 -106 -9 -60 -27 -89 -27 -145 -2
-58 27 -165 26 -249 0 -51 -16 -92 -20 -201 -20 -111 0 -147 -4 -194 -20 -31
-11 -68 -20 -81 -20 -14 0 -48 -9 -76 -20 -40 -16 -72 -20 -143 -19 -61 1
-110 -4 -146 -15 -36 -10 -91 -16 -161 -16 -67 0 -126 -6 -160 -16 -30 -9 -89
-19 -130 -24 -41 -4 -95 -15 -120 -23 -25 -8 -70 -18 -99 -22 -92 -11 -135
-54 -116 -115 8 -24 56 -28 74 -6 7 8 38 18 69 22 31 3 65 11 75 16 10 5 61
14 112 19 52 5 113 18 137 29 34 16 66 20 158 20 86 0 132 5 180 20 45 14 94
20 160 20 73 0 105 5 139 20 24 11 58 20 77 20 18 0 56 9 84 20 41 16 74 20
179 20 102 0 143 4 195 21 80 24 167 26 218 5 46 -20 145 -20 178 -1 30 17 74
19 102 4 15 -8 36 -8 78 0 47 9 63 9 93 -4 49 -20 96 -19 148 5 34 15 66 20
140 20 57 0 116 6 145 15 27 9 89 18 137 21 99 7 95 9 154 -76 38 -54 89 -102
163 -155 30 -21 89 -71 130 -110 41 -39 116 -104 165 -145 118 -96 157 -133
217 -204 27 -33 91 -97 141 -143 50 -47 102 -100 115 -118 14 -19 41 -45 61
-58 20 -13 54 -35 76 -50 116 -76 289 -237 320 -297 15 -30 72 -89 165 -175
78 -71 165 -156 193 -189 28 -32 76 -77 106 -99 31 -23 81 -64 111 -92 47 -44
103 -84 267 -189 18 -12 33 -24 33 -28 0 -5 8 -8 18 -8 11 0 27 -9 37 -20 19
-21 71 -50 90 -50 6 0 17 6 24 13 10 10 2 21 -38 57 l-51 45 11 44 c11 48 7
55 -32 64 -25 6 -26 5 -26 -38 0 -25 5 -45 10 -45 6 0 8 -2 5 -5 -17 -17 -212
109 -308 200 -30 28 -80 70 -111 92 -31 23 -81 70 -111 105 -31 34 -117 118
-191 186 -87 80 -142 138 -157 167 -38 75 -332 335 -378 335 -12 0 -95 85
-102 104 -3 8 -44 50 -93 94 -48 44 -108 106 -133 137 -58 71 -150 155 -304
280 -13 11 -54 48 -90 81 -36 34 -80 75 -99 91 -30 26 -32 31 -18 44 34 30 46
39 55 39 5 0 14 6 20 13 9 10 1 24 -33 57 l-45 44 -30 -29 c-16 -16 -30 -34
-30 -41 0 -6 -11 -14 -25 -17 -20 -3 -32 3 -53 26 -15 16 -39 42 -54 57 -16
15 -28 37 -28 49 0 19 5 21 56 21 31 0 70 6 87 14 106 48 203 86 218 86 10 0
21 5 24 10 3 6 19 10 34 10 16 0 40 9 54 20 14 11 45 27 69 35 24 9 90 38 148
66 58 28 115 56 128 62 49 23 7 70 -59 65 l-42 -3 -39 75 c-98 186 -258 511
-258 524 0 8 -4 18 -10 21 -5 3 -10 15 -10 25 0 10 -4 22 -10 25 -6 4 -10 -16
-10 -54z"/>
<path d="M8351 4588 c-24 -55 -203 -231 -265 -261 -30 -15 -62 -27 -70 -27
-15 0 -85 -28 -128 -51 -10 -5 -25 -9 -33 -9 -8 0 -23 -4 -33 -9 -40 -21 -151
-71 -159 -71 -5 0 -34 -13 -65 -29 -31 -16 -69 -31 -85 -33 -20 -2 -28 -8 -28
-23 0 -18 6 -20 62 -18 39 1 77 9 100 21 21 11 49 24 63 29 14 6 45 20 70 31
25 12 67 28 94 37 27 9 73 27 103 40 29 14 62 25 72 25 41 0 137 66 222 154
49 50 89 97 89 104 0 7 5 21 10 32 6 11 15 29 20 40 15 30 12 50 -8 50 -10 0
-23 -14 -31 -32z"/>
<path d="M4780 4542 c0 -10 14 -31 30 -47 17 -16 30 -35 30 -42 0 -7 53 -65
118 -128 110 -108 125 -119 242 -177 88 -44 143 -65 185 -71 33 -4 79 -10 103
-13 31 -5 56 0 92 15 27 12 58 21 70 21 36 0 17 24 -26 33 -24 5 -54 4 -81 -4
-23 -6 -47 -7 -55 -3 -7 5 -41 11 -74 15 -48 5 -91 21 -190 70 -122 60 -134
68 -226 164 -54 55 -98 105 -98 111 0 5 -15 24 -33 42 -38 37 -87 44 -87 14z"/>
<path d="M8640 4520 c0 -13 24 -36 76 -71 121 -81 220 -89 321 -25 27 18 30
24 26 56 -10 63 -25 68 -90 35 -40 -20 -72 -29 -108 -29 -74 0 -146 14 -177
35 -34 24 -48 24 -48 -1z"/>
<path d="M10900 4200 c-45 -17 -80 -20 -203 -20 -127 0 -155 -3 -195 -20 -45
-20 -63 -20 -352 -16 -168 2 -328 7 -355 11 -49 6 -53 5 -103 -37 -28 -24 -52
-51 -52 -60 0 -27 41 -22 86 8 39 27 39 27 85 11 38 -14 97 -17 355 -18 291
-1 312 1 362 20 45 18 74 21 208 21 127 0 161 3 187 17 22 12 63 18 137 21 91
3 113 1 160 -18 53 -21 70 -22 451 -25 l397 -2 63 -31 c112 -54 189 -82 241
-88 28 -4 70 -15 92 -25 23 -10 59 -19 80 -19 28 0 78 -19 173 -66 81 -40 170
-75 226 -89 50 -13 110 -29 132 -35 23 -7 58 -9 85 -6 25 4 60 9 79 11 19 3
39 9 44 14 15 15 -11 41 -39 41 -22 0 -51 6 -164 32 -25 5 -82 19 -128 29 -51
11 -112 34 -157 59 -40 22 -78 40 -84 40 -7 0 -30 9 -53 20 -23 11 -69 24
-102 30 -34 6 -77 18 -96 27 -19 9 -57 18 -85 21 -27 2 -54 8 -60 12 -5 4 -37
17 -70 30 -33 13 -69 30 -81 37 -59 37 -126 43 -503 43 -346 0 -372 1 -412 20
-63 28 -269 28 -349 0z"/>
<path d="M4673 3523 c-19 -7 -16 -37 5 -55 21 -19 253 -138 269 -138 12 0 170
-116 224 -165 54 -49 145 -105 219 -136 75 -31 130 -61 181 -101 20 -15 41
-28 46 -28 6 0 34 -23 64 -51 30 -29 95 -76 144 -105 151 -88 164 -97 238
-156 65 -52 234 -148 260 -148 6 0 52 -25 104 -55 52 -30 106 -58 121 -61 15
-4 37 -13 48 -21 19 -12 21 -19 13 -54 -5 -22 -13 -47 -18 -57 -5 -9 -16 -34
-25 -55 -13 -30 -21 -37 -34 -32 -9 4 -27 8 -39 10 -13 1 -28 7 -35 13 -7 6
-35 10 -61 10 -39 0 -47 -3 -43 -15 3 -8 6 -20 6 -27 0 -7 12 -18 26 -25 15
-6 24 -17 21 -25 -5 -13 47 -76 64 -76 5 0 9 7 9 15 0 8 5 15 10 15 6 0 10 9
10 20 0 11 5 20 11 20 12 0 4 -31 -22 -80 -10 -19 -29 -66 -43 -105 -13 -38
-58 -138 -100 -222 -42 -83 -76 -158 -76 -166 0 -8 -7 -32 -16 -53 -9 -22 -22
-61 -29 -89 -7 -27 -22 -74 -33 -104 -11 -30 -18 -61 -15 -68 9 -24 32 -13 50
25 10 20 32 59 50 87 18 27 46 81 63 120 16 38 63 136 104 217 41 81 87 180
102 220 15 40 36 88 45 105 10 18 26 65 35 105 17 73 29 98 45 98 5 0 9 -9 9
-19 0 -11 5 -23 10 -26 6 -3 10 -41 10 -83 0 -52 6 -95 20 -132 11 -30 20 -72
20 -94 0 -41 12 -85 38 -146 16 -35 36 -120 73 -299 11 -51 22 -97 24 -102 3
-4 6 -35 6 -69 1 -34 8 -85 16 -113 8 -29 21 -86 29 -127 11 -59 20 -81 44
-104 23 -24 32 -28 42 -18 9 9 9 19 0 45 -7 18 -12 53 -12 78 0 24 -8 64 -17
89 -9 25 -20 81 -23 125 -4 44 -14 106 -23 138 -10 32 -17 72 -17 89 0 34 -19
108 -32 123 -4 5 -8 22 -8 39 0 31 -13 78 -38 136 -21 48 -33 95 -42 165 -4
33 -14 83 -23 110 -9 28 -17 73 -17 102 0 34 -7 65 -20 88 -11 20 -20 44 -20
55 0 10 -4 22 -10 25 -5 3 -10 17 -10 30 0 39 -21 74 -57 96 -19 12 -57 41
-85 65 -49 42 -92 65 -238 130 -63 29 -194 112 -257 163 -60 50 -108 80 -233
147 -14 7 -43 30 -65 50 -41 38 -221 161 -265 182 -14 6 -50 22 -80 35 -58 26
-87 46 -278 193 -82 63 -143 102 -197 125 -44 18 -113 50 -154 71 -71 37 -92
42 -118 31z"/>
</g>
</svg>
